<svg xmlns="http://www.w3.org/2000/svg" width="520" height="520" viewBox="0 0 520 520">
  <defs>
    <!-- soft gold for lines; tweak to #c9b08a for stronger, #decfbf for softer -->
    <style>
      .l{stroke:#cdb69c;stroke-opacity:.38;fill:none;stroke-width:1}
      .d{fill:#cdb69c;fill-opacity:.25}
      .g{stroke:#cdb69c;stroke-opacity:.18;fill:none;stroke-width:.8}
    </style>
  </defs>

  <!-- light grid -->
  <g class="g" opacity=".9">
    <!-- verticals -->
    <path d="M40 0V520M80 0V520M120 0V520M160 0V520M200 0V520M240 0V520M280 0V520M320 0V520M360 0V520M400 0V520M440 0V520M480 0V520"/>
    <!-- horizontals -->
    <path d="M0 40H520M0 80H520M0 120H520M0 160H520M0 200H520M0 240H520M0 280H520M0 320H520M0 360H520M0 400H520M0 440H520M0 480H520"/>
  </g>

  <!-- molecular / diagram nodes -->
  <g class="l">
    <circle cx="110" cy="110" r="75"/>
    <circle cx="390" cy="130" r="58"/>
    <circle cx="420" cy="390" r="80"/>
    <circle cx="160" cy="380" r="52"/>
    <line x1="110" y1="110" x2="390" y2="130"/>
    <line x1="390" y1="130" x2="420" y2="390"/>
    <line x1="110" y1="110" x2="160" y2="380"/>
    <line x1="160" y1="380" x2="420" y2="390"/>
  </g>

  <!-- connection dots -->
  <circle class="d" cx="110" cy="110" r="3"/>
  <circle class="d" cx="390" cy="130" r="3"/>
  <circle class="d" cx="420" cy="390" r="3"/>
  <circle class="d" cx="160" cy="380" r="3"/>
</svg>

