<svg xmlns="http://www.w3.org/2000/svg" width="560" height="560" viewBox="0 0 560 560">
  <defs>
    <style>
      .grid{stroke:#d8cfc4;stroke-opacity:.55;fill:none;stroke-width:.9}
      .diag{stroke:#c4a989;stroke-opacity:.55;fill:none;stroke-width:1.2}
      .dot{fill:#c4a989;fill-opacity:.45}
    </style>
  </defs>

  <!-- fine grid -->
  <g class="grid">
    <!-- 40px spacing -->
    <path d="M40 0V560M80 0V560M120 0V560M160 0V560M200 0V560M240 0V560M280 0V560M320 0V560M360 0V560M400 0V560M440 0V560M480 0V560M520 0V560"/>
    <path d="M0 40H560M0 80H560M0 120H560M0 160H560M0 200H560M0 240H560M0 280H560M0 320H560M0 360H560M0 400H560M0 440H560M0 480H560M0 520H560"/>
  </g>

  <!-- big nodes + connectors -->
  <g class="diag">
    <circle cx="135" cy="145" r="85"/>
    <circle cx="430" cy="160" r="62"/>
    <circle cx="440" cy="420" r="95"/>
    <circle cx="190" cy="410" r="60"/>
    <line x1="135" y1="145" x2="430" y2="160"/>
    <line x1="430" y1="160" x2="440" y2="420"/>
    <line x1="135" y1="145" x2="190" y2="410"/>
    <line x1="190" y1="410" x2="440" y2="420"/>
  </g>

  <!-- accent dots -->
  <circle class="dot" cx="135" cy="145" r="3.5"/>
  <circle class="dot" cx="430" cy="160" r="3.5"/>
  <circle class="dot" cx="440" cy="420" r="3.5"/>
  <circle class="dot" cx="190" cy="410" r="3.5"/>
</svg>


